Coordinates
version=1
nRows=19
nColumns=36
inDegrees=yes

Units are S.I. units (second, meters, Newtons, ...)
If the header above contains a line with 'inDegrees', this indicates whether rotational values are in degrees (yes) or radians (no).

endheader
time	pelvis_tilt	pelvis_list	pelvis_rotation	pelvis_tx	pelvis_ty	pelvis_tz	hip_flexion_r	hip_adduction_r	hip_rotation_r	knee_angle_r	knee_angle_r_beta	ankle_angle_r	subtalar_angle_r	mtp_angle_r	hip_flexion_l	hip_adduction_l	hip_rotation_l	knee_angle_l	knee_angle_l_beta	ankle_angle_l	subtalar_angle_l	mtp_angle_l	lumbar_extension	lumbar_bending	lumbar_rotation	arm_flex_r	arm_add_r	arm_rot_r	elbow_flex_r	pro_sup_r	arm_flex_l	arm_add_l	arm_rot_l	elbow_flex_l	pro_sup_l
      0.00000000	     -1.56293155	     -2.44535870	      8.06342065	     -0.92893325	      1.26985891	     -0.08825894	     -0.34028994	      2.89652719	      1.32177338	      4.04140237	      0.07053578	      2.62147055	    -16.41380949	     -6.66645869	      3.18542411	     -1.24399840	      6.30111452	      8.09286640	      0.14124716	      9.50497854	     -7.83126486	     -6.66645869	     -4.31337922	      7.63792727	      1.59749560	      8.10981425	    -10.78284737	      9.01141252	     26.61555955	     82.72880618	     49.51174979	     -6.86324229	     19.44312725	    142.13986044	     84.39454942
      0.00416670	     -3.68329421	     -2.34668610	      7.89314315	     -0.92774155	      1.26648488	     -0.08843205	      1.91915309	      2.55294673	      1.14143251	      3.84293420	      0.06707185	      4.68873589	    -13.07538872	     -6.87990341	      5.30467695	     -0.55594709	      6.81731645	      7.40125413	      0.12917625	      8.25681859	     -6.78510335	     -6.87990341	     -1.03502208	      6.76958649	      0.85727490	      7.52754181	    -10.15880462	      7.00623648	     27.92926734	     79.45640024	     50.41056504	     -7.45544358	     18.00635366	    144.32148454	     80.68635648
      0.00833330	     -4.88835165	     -1.86028946	      8.10216126	     -0.93300609	      1.26503283	     -0.08382851	      2.94477174	      1.97931769	     -0.40894878	      3.03263508	      0.05292947	      5.66214382	    -11.25402971	     -6.90587946	      6.81341046	      0.01343816	      6.31363003	      7.32900554	      0.12791528	      7.72159499	     -5.43022843	     -6.90587946	      0.27856064	      5.29383485	      0.79550747	      7.54285760	     -9.31451147	      6.59234146	     27.40950558	     81.56925824	     52.89921981	     -7.17804008	     17.77292707	    144.08534897	     80.10988902
      0.01250000	     -4.90034815	     -1.64950399	      8.49245867	     -0.93338280	      1.26532233	     -0.08381382	      2.80592756	      1.80728889	     -1.01819717	      2.53679565	      0.04427544	      5.73556753	    -11.01372907	     -6.92189627	      6.56635328	      0.19726734	      6.28136718	      6.64395098	      0.11595882	      7.15041001	     -5.08020973	     -6.92189627	     -0.01761223	      4.67042162	      0.40883602	      7.17825953	     -8.83570419	      6.60524878	     27.84715070	     81.87686301	     53.14786874	     -7.35369484	     17.57849362	    144.82725303	     79.69404644
      0.01666670	     -4.11902854	     -1.40540809	      8.38305116	     -0.93311434	      1.26662326	     -0.08393320	      1.80208404	      1.71613153	     -1.83010569	      2.19631225	      0.03833288	      6.45919495	     -9.43748596	     -7.16150883	      5.43775134	      0.28455131	      6.04625170	      6.15480365	      0.10742159	      7.14437953	     -4.64530875	     -7.16150883	     -1.39658469	      4.54447830	      0.71842410	      6.81839929	     -8.30878767	      1.45620306	     28.34366424	     99.77366760	     53.71513478	     -7.47519667	     17.03182897	    145.78353404	     77.01378970
      0.02083330	     -3.78807753	     -1.28308702	      8.41993070	     -0.93352582	      1.26679126	     -0.08380300	      1.32803460	      1.67387454	     -2.33688942	      1.96916999	      0.03436850	      6.64084034	     -8.80844912	     -7.22145096	      4.99755401	      0.36140608	      6.08403158	      5.93469749	      0.10358001	      7.19586468	     -4.61693497	     -7.22145096	     -1.95044489	      4.46114199	      1.10040050	      6.99249802	     -8.37251480	      1.46979105	     27.71214293	     98.49369094	     54.01042937	     -7.25839132	     15.94478592	    146.51701739	     75.81206729
      0.02500000	     -3.69116413	     -1.21539662	      8.19032744	     -0.93311602	      1.26731412	     -0.08375307	      1.22405325	      1.62826058	     -2.31403986	      1.94941825	      0.03402377	      6.73800075	     -8.65463569	     -7.26603530	      4.78800292	      0.36843010	      5.75142780	      5.77622800	      0.10081420	      7.26979354	     -4.27381261	     -7.26603530	     -2.28544352	      4.48433685	      1.50827043	      6.94974807	     -8.30417182	      1.13839340	     27.04814494	     96.53889118	     54.32675224	     -7.13571309	     15.36080679	    147.00793297	     74.40916330
      0.02916670	     -3.58107276	     -1.16701251	      8.14627042	     -0.93352967	      1.26694157	     -0.08353011	      1.03605130	      1.60422706	     -2.39407283	      1.83366094	      0.03200342	      6.69419948	     -8.60966889	     -7.32229645	      4.65191827	      0.40837185	      5.96473197	      5.73000372	      0.10000743	      7.19300684	     -4.75590311	     -7.32229645	     -2.58052996	      4.55664902	      1.31299951	      7.24291247	     -8.33929398	      1.60670620	     26.59889749	     99.20347233	     54.40473179	     -6.53900970	     14.56487591	    147.10457126	     73.63468682
      0.03333330	     -3.41948102	     -1.16111619	      8.18459358	     -0.93313891	      1.26721449	     -0.08374652	      0.79327715	      1.63188827	     -2.62454485	      1.72594149	      0.03012336	      6.80447459	     -8.21966113	     -7.35145665	      4.48101726	      0.32881396	      5.76091004	      5.72443612	      0.09991026	      7.28289517	     -4.59803066	     -7.35145665	     -2.73807504	      4.52047963	      1.48210387	      7.01463966	     -8.21250961	      0.36363436	     25.85253472	     97.63770989	     55.47292882	     -6.33053622	     14.59891396	    147.09701573	     72.77742160
      0.03750000	     -3.32535147	     -1.17060114	      8.24059860	     -0.93353673	      1.27086615	     -0.08355786	      0.63145620	      1.65092720	     -3.08007813	      1.63395997	      0.02851798	      6.79165050	     -7.65241693	     -7.41418259	      4.36514518	      0.30043136	      5.93522279	      5.64418022	      0.09850953	      7.04313345	     -4.81914069	     -7.41418259	     -2.88478823	      4.56584887	      1.66710684	      6.60588052	     -7.91304252	     -3.27355761	     26.08137434	    104.56098827	     55.32824171	     -6.14173938	     15.58537274	    147.68371304	     74.29787567
      0.04166670	     -3.30163541	     -1.15441814	      8.00847268	     -0.93339632	      1.26700754	     -0.08360078	      0.60964565	      1.65004109	     -2.67443339	      1.58611239	      0.02768288	      6.58208764	     -8.13341327	     -7.41605934	      4.30982360	      0.25509101	      5.44932254	      5.62139922	      0.09811193	      7.16594639	     -4.74714520	     -7.41605934	     -2.73098683	      4.54701395	      2.52417602	      6.17014148	     -7.94903015	     -4.03464881	     25.60299687	    103.15195412	     56.05214673	     -6.10401854	     15.16578640	    148.16395738	     73.38508621
      0.04583330	     -3.41255993	     -1.12928649	      8.07725678	     -0.93347419	      1.26700489	     -0.08326180	      0.70590834	      1.56453110	     -3.12840270	      1.49258851	      0.02605058	      6.79248252	     -7.42471009	     -7.44420468	      4.48096484	      0.32408941	      5.69234949	      5.61883961	      0.09806725	      7.13786130	     -4.97112015	     -7.44420468	     -2.57443000	      4.59758898	      2.75274950	      5.61904295	     -7.65166018	     -6.23296411	     25.90259436	    105.29329648	     56.91495018	     -6.43981137	     15.18786259	    148.06810025	     73.77098418
      0.05000000	     -3.26479852	     -1.06825094	      8.05086865	     -0.93309317	      1.26752617	     -0.08338872	      0.50623501	      1.52922545	     -3.18523259	      1.40345108	      0.02449484	      6.69828078	     -7.35226242	     -7.45438845	      4.24656248	      0.37628221	      5.78405208	      5.56488254	      0.09712552	      7.14669817	     -5.01349760	     -7.45438845	     -2.62537157	      4.45871536	      3.07221988	      5.27827747	     -7.51459739	     -6.99028010	     25.48195347	    102.53401407	     58.04483702	     -6.04450596	     14.37621362	    148.21857766	     72.52099198
      0.05416670	     -2.97010211	     -0.99307051	      8.16862174	     -0.92740421	      1.27073379	     -0.08800457	      0.02806768	      1.45127639	     -3.34699258	      1.31761803	      0.02299677	      6.70307014	     -7.04972029	     -7.45673484	      3.65188820	      0.45690978	      5.86483691	      5.24108519	      0.09147419	      6.98517763	     -5.05082466	     -7.45673484	     -2.45884044	      4.55261949	      3.73975111	      4.03635288	     -7.64666095	     -8.89940920	     25.00114225	    103.13003954	     57.99432199	     -5.90524082	     11.92685612	    148.75237425	     72.42682187
      0.05833330	     -2.91841625	     -0.85416565	      8.03942604	     -0.92678617	      1.27074726	     -0.08830118	     -0.19242430	      1.20985852	     -3.45122529	      1.28202671	      0.02237559	      6.68764907	     -6.76724477	     -7.47856992	      3.16207164	      0.63714295	      5.81740547	      4.64534010	      0.08107648	      6.67256635	     -5.07097244	     -7.47856992	     -1.86228807	      4.80881699	      5.19539865	      2.40355192	     -7.64949668	    -13.11138417	     25.35044406	    106.47687129	     57.45564232	     -7.91819268	      9.02898944	    149.05301810	     71.47942287
      0.06250000	     -2.65064234	     -0.75740338	      7.94566795	     -0.92717551	      1.27064537	     -0.08770767	     -0.59422206	      1.10629445	     -3.26132954	      1.25532288	      0.02190952	      6.57823552	     -6.97743352	     -7.48639508	      2.46207994	      0.72368384	      5.75804862	      4.12127967	      0.07192990	      6.37311649	     -5.34200812	     -7.48639508	     -1.77352855	      5.12360323	      6.37975968	      1.33172690	     -7.73310201	    -15.73400276	     25.48840406	    105.73072267	     56.70776345	    -10.10750032	      6.12799879	    149.26186251	     71.14059181
      0.06666670	     -2.50215298	     -0.67725392	      7.99725873	     -0.93295807	      1.26729769	     -0.08313329	     -0.73744071	      1.09227749	     -3.27232602	      1.22122431	      0.02131439	      6.62586822	     -7.11411466	     -7.48776078	      2.10841766	      0.76059464	      5.93349481	      3.79736060	      0.06627645	      6.29630571	     -5.54102630	     -7.48776078	     -2.21526524	      5.07198875	      6.67879100	      1.72328134	     -7.77362583	    -15.95413118	     25.17796292	    104.46074614	     57.69493713	    -10.42974043	      3.99011560	    149.27995282	     70.81734637
      0.07083330	     -2.33786033	     -0.61808542	      8.12439967	     -0.92715021	      1.26740423	     -0.08702957	     -1.00076485	      1.04525901	     -3.42456514	      1.09933937	      0.01918709	      6.79843490	     -6.80171363	     -7.48845749	      1.72939675	      0.75735836	      6.03932337	      3.55213208	      0.06199640	      6.21819448	     -5.44692548	     -7.48845749	     -2.46533863	      5.08143015	      6.14562649	      2.02754578	     -7.59032622	    -16.45694142	     24.84868063	    105.04159039	     58.65498175	     -9.77936079	      3.57458324	    149.26923520	     71.02308400
      0.07500000	     -2.10104184	     -0.58745928	      8.05612680	     -0.92663190	      1.26798315	     -0.08734092	     -1.32981994	      1.02298274	     -3.74929463	      1.08639002	      0.01896108	      7.13021764	     -6.14161532	     -7.49154775	      1.24066158	      0.75645565	      5.78825890	      3.30869669	      0.05774765	      6.39300699	     -5.13237220	     -7.49154775	     -2.74651305	      5.18073875	      6.23530406	      2.05429430	     -7.45782009	    -16.63337878	     24.48931474	    100.19291686	     58.64949812	     -9.33712925	      3.64321863	    149.30092283	     69.82593640
